<mxfile host="app.diagrams.net" modified="2021-10-08T20:27:40.180Z" agent="5.0 (Windows NT 10.0; Win64; x64) AppleWebKit/537.36 (KHTML, like Gecko) Chrome/94.0.4606.71 Safari/537.36" etag="6v3vpROffsWaS5pmeCkM" version="15.4.3" type="github">
  <diagram id="R2lEEEUBdFMjLlhIrx00" name="Page-1">
    <mxGraphModel dx="1662" dy="794" grid="1" gridSize="10" guides="1" tooltips="1" connect="1" arrows="1" fold="1" page="1" pageScale="1" pageWidth="850" pageHeight="1100" math="0" shadow="0" extFonts="Permanent Marker^https://fonts.googleapis.com/css?family=Permanent+Marker">
      <root>
        <mxCell id="0" />
        <mxCell id="1" parent="0" />
        <mxCell id="qRQIfawTwgO48iiJtZ4b-1" value="&lt;font style=&quot;vertical-align: inherit&quot;&gt;&lt;font style=&quot;vertical-align: inherit&quot;&gt;capta&lt;/font&gt;&lt;/font&gt;" style="shape=rhombus;perimeter=rhombusPerimeter;whiteSpace=wrap;html=1;align=center;" vertex="1" parent="1">
          <mxGeometry x="290" y="100" width="80" height="50" as="geometry" />
        </mxCell>
        <mxCell id="qRQIfawTwgO48iiJtZ4b-2" value="empresa de produtos farmacêutico&amp;nbsp;" style="whiteSpace=wrap;html=1;align=center;" vertex="1" parent="1">
          <mxGeometry x="130" y="100" width="100" height="40" as="geometry" />
        </mxCell>
        <mxCell id="qRQIfawTwgO48iiJtZ4b-5" value="clentes" style="whiteSpace=wrap;html=1;align=center;" vertex="1" parent="1">
          <mxGeometry x="435" y="270" width="100" height="40" as="geometry" />
        </mxCell>
        <mxCell id="qRQIfawTwgO48iiJtZ4b-6" value="medicamentos&amp;nbsp;" style="whiteSpace=wrap;html=1;align=center;" vertex="1" parent="1">
          <mxGeometry x="710" y="280" width="100" height="40" as="geometry" />
        </mxCell>
        <mxCell id="qRQIfawTwgO48iiJtZ4b-7" value="pedidos" style="whiteSpace=wrap;html=1;align=center;" vertex="1" parent="1">
          <mxGeometry x="425" y="110" width="100" height="40" as="geometry" />
        </mxCell>
        <mxCell id="qRQIfawTwgO48iiJtZ4b-10" value="" style="endArrow=none;html=1;rounded=0;edgeStyle=orthogonalEdgeStyle;" edge="1" parent="1">
          <mxGeometry relative="1" as="geometry">
            <mxPoint x="370" y="125" as="sourcePoint" />
            <mxPoint x="425" y="124.5" as="targetPoint" />
            <Array as="points">
              <mxPoint x="398" y="125" />
            </Array>
          </mxGeometry>
        </mxCell>
        <mxCell id="qRQIfawTwgO48iiJtZ4b-11" value="N" style="resizable=0;html=1;align=right;verticalAlign=bottom;" connectable="0" vertex="1" parent="qRQIfawTwgO48iiJtZ4b-10">
          <mxGeometry x="1" relative="1" as="geometry" />
        </mxCell>
        <mxCell id="qRQIfawTwgO48iiJtZ4b-12" value="" style="endArrow=none;html=1;rounded=0;edgeStyle=orthogonalEdgeStyle;" edge="1" parent="1">
          <mxGeometry relative="1" as="geometry">
            <mxPoint x="230" y="125" as="sourcePoint" />
            <mxPoint x="230" y="125" as="targetPoint" />
            <Array as="points">
              <mxPoint x="290" y="124.5" />
              <mxPoint x="290" y="124.5" />
            </Array>
          </mxGeometry>
        </mxCell>
        <mxCell id="qRQIfawTwgO48iiJtZ4b-13" value="1" style="resizable=0;html=1;align=right;verticalAlign=bottom;" connectable="0" vertex="1" parent="qRQIfawTwgO48iiJtZ4b-12">
          <mxGeometry x="1" relative="1" as="geometry">
            <mxPoint x="10" y="-5" as="offset" />
          </mxGeometry>
        </mxCell>
        <mxCell id="qRQIfawTwgO48iiJtZ4b-15" value="&lt;font style=&quot;vertical-align: inherit&quot;&gt;&lt;font style=&quot;vertical-align: inherit&quot;&gt;compra&lt;/font&gt;&lt;/font&gt;" style="shape=rhombus;perimeter=rhombusPerimeter;whiteSpace=wrap;html=1;align=center;" vertex="1" parent="1">
          <mxGeometry x="445" y="180" width="80" height="50" as="geometry" />
        </mxCell>
        <mxCell id="qRQIfawTwgO48iiJtZ4b-16" value="" style="triangle;whiteSpace=wrap;html=1;rotation=-90;" vertex="1" parent="1">
          <mxGeometry x="466.25" y="330" width="37.5" height="57.5" as="geometry" />
        </mxCell>
        <mxCell id="qRQIfawTwgO48iiJtZ4b-19" value="" style="line;strokeWidth=1;rotatable=0;dashed=0;labelPosition=right;align=left;verticalAlign=middle;spacingTop=0;spacingLeft=6;points=[];portConstraint=eastwest;" vertex="1" parent="1">
          <mxGeometry x="530" y="290" width="60" height="10" as="geometry" />
        </mxCell>
        <mxCell id="qRQIfawTwgO48iiJtZ4b-20" value="" style="endArrow=none;html=1;rounded=0;shadow=0;edgeStyle=orthogonalEdgeStyle;" edge="1" parent="1">
          <mxGeometry relative="1" as="geometry">
            <mxPoint x="485" y="270" as="sourcePoint" />
            <mxPoint x="484.5" y="230" as="targetPoint" />
            <Array as="points">
              <mxPoint x="485" y="250" />
            </Array>
          </mxGeometry>
        </mxCell>
        <mxCell id="qRQIfawTwgO48iiJtZ4b-21" value="" style="resizable=0;html=1;align=right;verticalAlign=bottom;" connectable="0" vertex="1" parent="qRQIfawTwgO48iiJtZ4b-20">
          <mxGeometry x="1" relative="1" as="geometry" />
        </mxCell>
        <mxCell id="qRQIfawTwgO48iiJtZ4b-24" value="" style="endArrow=none;html=1;rounded=0;shadow=0;edgeStyle=orthogonalEdgeStyle;" edge="1" parent="1">
          <mxGeometry relative="1" as="geometry">
            <mxPoint x="485" y="340" as="sourcePoint" />
            <mxPoint x="484.5" y="310" as="targetPoint" />
            <Array as="points">
              <mxPoint x="485.5" y="330" />
            </Array>
          </mxGeometry>
        </mxCell>
        <mxCell id="qRQIfawTwgO48iiJtZ4b-25" value="" style="resizable=0;html=1;align=right;verticalAlign=bottom;" connectable="0" vertex="1" parent="qRQIfawTwgO48iiJtZ4b-24">
          <mxGeometry x="1" relative="1" as="geometry" />
        </mxCell>
        <mxCell id="qRQIfawTwgO48iiJtZ4b-26" value="farmácias&amp;nbsp;" style="whiteSpace=wrap;html=1;align=center;" vertex="1" parent="1">
          <mxGeometry x="360" y="400" width="100" height="40" as="geometry" />
        </mxCell>
        <mxCell id="qRQIfawTwgO48iiJtZ4b-27" value="drogarias" style="whiteSpace=wrap;html=1;align=center;" vertex="1" parent="1">
          <mxGeometry x="500" y="400" width="100" height="40" as="geometry" />
        </mxCell>
        <mxCell id="qRQIfawTwgO48iiJtZ4b-28" value="" style="endArrow=none;html=1;rounded=0;shadow=0;edgeStyle=orthogonalEdgeStyle;" edge="1" parent="1">
          <mxGeometry relative="1" as="geometry">
            <mxPoint x="485" y="180" as="sourcePoint" />
            <mxPoint x="484.5" y="150" as="targetPoint" />
            <Array as="points">
              <mxPoint x="485" y="170" />
            </Array>
          </mxGeometry>
        </mxCell>
        <mxCell id="qRQIfawTwgO48iiJtZ4b-29" value="" style="resizable=0;html=1;align=right;verticalAlign=bottom;" connectable="0" vertex="1" parent="qRQIfawTwgO48iiJtZ4b-28">
          <mxGeometry x="1" relative="1" as="geometry" />
        </mxCell>
        <mxCell id="qRQIfawTwgO48iiJtZ4b-31" value="" style="endArrow=none;html=1;rounded=0;shadow=0;edgeStyle=orthogonalEdgeStyle;" edge="1" parent="1">
          <mxGeometry relative="1" as="geometry">
            <mxPoint x="510.5" y="399.9999999999998" as="sourcePoint" />
            <mxPoint x="510" y="369.9999999999998" as="targetPoint" />
            <Array as="points">
              <mxPoint x="511" y="390" />
            </Array>
          </mxGeometry>
        </mxCell>
        <mxCell id="qRQIfawTwgO48iiJtZ4b-32" value="" style="resizable=0;html=1;align=right;verticalAlign=bottom;" connectable="0" vertex="1" parent="qRQIfawTwgO48iiJtZ4b-31">
          <mxGeometry x="1" relative="1" as="geometry" />
        </mxCell>
        <mxCell id="qRQIfawTwgO48iiJtZ4b-33" value="" style="endArrow=none;html=1;rounded=0;shadow=0;edgeStyle=orthogonalEdgeStyle;" edge="1" parent="1">
          <mxGeometry relative="1" as="geometry">
            <mxPoint x="459.32" y="399.9999999999998" as="sourcePoint" />
            <mxPoint x="458.82" y="369.9999999999998" as="targetPoint" />
            <Array as="points">
              <mxPoint x="459.82" y="390" />
            </Array>
          </mxGeometry>
        </mxCell>
        <mxCell id="qRQIfawTwgO48iiJtZ4b-34" value="" style="resizable=0;html=1;align=right;verticalAlign=bottom;" connectable="0" vertex="1" parent="qRQIfawTwgO48iiJtZ4b-33">
          <mxGeometry x="1" relative="1" as="geometry" />
        </mxCell>
        <mxCell id="qRQIfawTwgO48iiJtZ4b-35" value="&lt;font style=&quot;vertical-align: inherit&quot;&gt;&lt;font style=&quot;vertical-align: inherit&quot;&gt;solicita&lt;/font&gt;&lt;/font&gt;" style="shape=rhombus;perimeter=rhombusPerimeter;whiteSpace=wrap;html=1;align=center;" vertex="1" parent="1">
          <mxGeometry x="590" y="270" width="80" height="50" as="geometry" />
        </mxCell>
        <mxCell id="qRQIfawTwgO48iiJtZ4b-36" value="" style="line;strokeWidth=1;rotatable=0;dashed=0;labelPosition=right;align=left;verticalAlign=middle;spacingTop=0;spacingLeft=6;points=[];portConstraint=eastwest;" vertex="1" parent="1">
          <mxGeometry x="670" y="290" width="40" height="10" as="geometry" />
        </mxCell>
        <mxCell id="qRQIfawTwgO48iiJtZ4b-37" value="&lt;font style=&quot;vertical-align: inherit&quot;&gt;&lt;font style=&quot;vertical-align: inherit&quot;&gt;generico&lt;/font&gt;&lt;/font&gt;" style="whiteSpace=wrap;html=1;align=center;" vertex="1" parent="1">
          <mxGeometry x="678.75" y="400" width="100" height="40" as="geometry" />
        </mxCell>
        <mxCell id="qRQIfawTwgO48iiJtZ4b-38" value="&lt;font style=&quot;vertical-align: inherit&quot;&gt;&lt;font style=&quot;vertical-align: inherit&quot;&gt;de marca&lt;/font&gt;&lt;/font&gt;" style="whiteSpace=wrap;html=1;align=center;" vertex="1" parent="1">
          <mxGeometry x="790" y="400" width="100" height="40" as="geometry" />
        </mxCell>
        <mxCell id="qRQIfawTwgO48iiJtZ4b-39" value="" style="triangle;whiteSpace=wrap;html=1;rotation=-90;" vertex="1" parent="1">
          <mxGeometry x="760" y="330" width="37.5" height="57.5" as="geometry" />
        </mxCell>
        <mxCell id="qRQIfawTwgO48iiJtZ4b-42" value="" style="endArrow=none;html=1;rounded=0;shadow=0;edgeStyle=orthogonalEdgeStyle;" edge="1" parent="1">
          <mxGeometry relative="1" as="geometry">
            <mxPoint x="750" y="400" as="sourcePoint" />
            <mxPoint x="750" y="379.9999999999998" as="targetPoint" />
            <Array as="points">
              <mxPoint x="751" y="400" />
            </Array>
          </mxGeometry>
        </mxCell>
        <mxCell id="qRQIfawTwgO48iiJtZ4b-43" value="" style="resizable=0;html=1;align=right;verticalAlign=bottom;" connectable="0" vertex="1" parent="qRQIfawTwgO48iiJtZ4b-42">
          <mxGeometry x="1" relative="1" as="geometry" />
        </mxCell>
        <mxCell id="qRQIfawTwgO48iiJtZ4b-44" value="" style="endArrow=none;html=1;rounded=0;shadow=0;edgeStyle=orthogonalEdgeStyle;" edge="1" parent="1">
          <mxGeometry relative="1" as="geometry">
            <mxPoint x="797.9999999999994" y="399.9999999999998" as="sourcePoint" />
            <mxPoint x="798" y="380" as="targetPoint" />
            <Array as="points">
              <mxPoint x="798.4999999999999" y="390" />
            </Array>
          </mxGeometry>
        </mxCell>
        <mxCell id="qRQIfawTwgO48iiJtZ4b-45" value="" style="resizable=0;html=1;align=right;verticalAlign=bottom;" connectable="0" vertex="1" parent="qRQIfawTwgO48iiJtZ4b-44">
          <mxGeometry x="1" relative="1" as="geometry" />
        </mxCell>
        <mxCell id="qRQIfawTwgO48iiJtZ4b-46" value="" style="endArrow=none;html=1;rounded=0;shadow=0;edgeStyle=orthogonalEdgeStyle;" edge="1" parent="1">
          <mxGeometry relative="1" as="geometry">
            <mxPoint x="778.16" y="339.9999999999998" as="sourcePoint" />
            <mxPoint x="778.16" y="319.9999999999998" as="targetPoint" />
            <Array as="points">
              <mxPoint x="779.16" y="340" />
            </Array>
          </mxGeometry>
        </mxCell>
        <mxCell id="qRQIfawTwgO48iiJtZ4b-47" value="" style="resizable=0;html=1;align=right;verticalAlign=bottom;" connectable="0" vertex="1" parent="qRQIfawTwgO48iiJtZ4b-46">
          <mxGeometry x="1" relative="1" as="geometry" />
        </mxCell>
        <mxCell id="qRQIfawTwgO48iiJtZ4b-50" value="" style="ellipse;whiteSpace=wrap;html=1;align=center;" vertex="1" parent="1">
          <mxGeometry x="660" y="460" width="30" height="20" as="geometry" />
        </mxCell>
        <mxCell id="qRQIfawTwgO48iiJtZ4b-53" value="" style="ellipse;whiteSpace=wrap;html=1;align=center;" vertex="1" parent="1">
          <mxGeometry x="827.5" y="510" width="30" height="20" as="geometry" />
        </mxCell>
        <mxCell id="qRQIfawTwgO48iiJtZ4b-54" value="" style="ellipse;whiteSpace=wrap;html=1;align=center;" vertex="1" parent="1">
          <mxGeometry x="797.5" y="470" width="30" height="20" as="geometry" />
        </mxCell>
        <mxCell id="qRQIfawTwgO48iiJtZ4b-55" value="" style="ellipse;whiteSpace=wrap;html=1;align=center;" vertex="1" parent="1">
          <mxGeometry x="350" y="260" width="30" height="20" as="geometry" />
        </mxCell>
        <mxCell id="qRQIfawTwgO48iiJtZ4b-56" value="" style="ellipse;whiteSpace=wrap;html=1;align=center;" vertex="1" parent="1">
          <mxGeometry x="860" y="550" width="30" height="20" as="geometry" />
        </mxCell>
        <mxCell id="qRQIfawTwgO48iiJtZ4b-57" value="" style="ellipse;whiteSpace=wrap;html=1;align=center;" vertex="1" parent="1">
          <mxGeometry x="930" y="420" width="30" height="20" as="geometry" />
        </mxCell>
        <mxCell id="qRQIfawTwgO48iiJtZ4b-63" value="" style="endArrow=none;html=1;rounded=0;shadow=0;edgeStyle=orthogonalEdgeStyle;" edge="1" parent="1">
          <mxGeometry relative="1" as="geometry">
            <mxPoint x="678.75" y="460" as="sourcePoint" />
            <mxPoint x="678.75" y="439.9999999999998" as="targetPoint" />
            <Array as="points">
              <mxPoint x="679.75" y="460" />
            </Array>
          </mxGeometry>
        </mxCell>
        <mxCell id="qRQIfawTwgO48iiJtZ4b-64" value="" style="resizable=0;html=1;align=right;verticalAlign=bottom;" connectable="0" vertex="1" parent="qRQIfawTwgO48iiJtZ4b-63">
          <mxGeometry x="1" relative="1" as="geometry" />
        </mxCell>
        <mxCell id="qRQIfawTwgO48iiJtZ4b-65" value="&lt;font style=&quot;vertical-align: inherit&quot;&gt;&lt;font style=&quot;vertical-align: inherit&quot;&gt;validade&lt;/font&gt;&lt;/font&gt;" style="text;html=1;align=center;verticalAlign=middle;resizable=0;points=[];autosize=1;strokeColor=none;fillColor=none;" vertex="1" parent="1">
          <mxGeometry x="625" y="440" width="60" height="20" as="geometry" />
        </mxCell>
        <mxCell id="qRQIfawTwgO48iiJtZ4b-68" value="" style="ellipse;whiteSpace=wrap;html=1;align=center;" vertex="1" parent="1">
          <mxGeometry x="700" y="510" width="30" height="20" as="geometry" />
        </mxCell>
        <mxCell id="qRQIfawTwgO48iiJtZ4b-69" value="&lt;font style=&quot;vertical-align: inherit&quot;&gt;&lt;font style=&quot;vertical-align: inherit&quot;&gt;&lt;font style=&quot;vertical-align: inherit&quot;&gt;&lt;font style=&quot;vertical-align: inherit&quot;&gt;laboratório&amp;nbsp;&lt;/font&gt;&lt;/font&gt;&lt;/font&gt;&lt;/font&gt;" style="text;html=1;align=center;verticalAlign=middle;resizable=0;points=[];autosize=1;strokeColor=none;fillColor=none;" vertex="1" parent="1">
          <mxGeometry x="640" y="490" width="80" height="20" as="geometry" />
        </mxCell>
        <mxCell id="qRQIfawTwgO48iiJtZ4b-70" value="" style="ellipse;whiteSpace=wrap;html=1;align=center;" vertex="1" parent="1">
          <mxGeometry x="730" y="550" width="30" height="20" as="geometry" />
        </mxCell>
        <mxCell id="qRQIfawTwgO48iiJtZ4b-71" value="" style="endArrow=none;html=1;rounded=0;shadow=0;edgeStyle=orthogonalEdgeStyle;exitX=0.5;exitY=0;exitDx=0;exitDy=0;" edge="1" parent="1" source="qRQIfawTwgO48iiJtZ4b-70">
          <mxGeometry relative="1" as="geometry">
            <mxPoint x="746" y="506" as="sourcePoint" />
            <mxPoint x="746" y="440" as="targetPoint" />
            <Array as="points">
              <mxPoint x="746" y="550" />
            </Array>
          </mxGeometry>
        </mxCell>
        <mxCell id="qRQIfawTwgO48iiJtZ4b-72" value="" style="resizable=0;html=1;align=right;verticalAlign=bottom;" connectable="0" vertex="1" parent="qRQIfawTwgO48iiJtZ4b-71">
          <mxGeometry x="1" relative="1" as="geometry" />
        </mxCell>
        <mxCell id="qRQIfawTwgO48iiJtZ4b-73" value="" style="endArrow=none;html=1;rounded=0;shadow=0;edgeStyle=orthogonalEdgeStyle;" edge="1" parent="1">
          <mxGeometry relative="1" as="geometry">
            <mxPoint x="716" y="510" as="sourcePoint" />
            <mxPoint x="715.5" y="440" as="targetPoint" />
            <Array as="points">
              <mxPoint x="716" y="506" />
              <mxPoint x="716" y="506" />
            </Array>
          </mxGeometry>
        </mxCell>
        <mxCell id="qRQIfawTwgO48iiJtZ4b-74" value="" style="resizable=0;html=1;align=right;verticalAlign=bottom;" connectable="0" vertex="1" parent="qRQIfawTwgO48iiJtZ4b-73">
          <mxGeometry x="1" relative="1" as="geometry" />
        </mxCell>
        <mxCell id="qRQIfawTwgO48iiJtZ4b-75" value="&lt;font style=&quot;vertical-align: inherit&quot;&gt;&lt;font style=&quot;vertical-align: inherit&quot;&gt;propicio&lt;br&gt;ativo&lt;br&gt;&lt;/font&gt;&lt;/font&gt;" style="text;html=1;align=center;verticalAlign=middle;resizable=0;points=[];autosize=1;strokeColor=none;fillColor=none;" vertex="1" parent="1">
          <mxGeometry x="685" y="540" width="60" height="30" as="geometry" />
        </mxCell>
        <mxCell id="qRQIfawTwgO48iiJtZ4b-79" value="" style="endArrow=none;html=1;rounded=0;shadow=0;edgeStyle=orthogonalEdgeStyle;" edge="1" parent="1">
          <mxGeometry relative="1" as="geometry">
            <mxPoint x="811" y="470" as="sourcePoint" />
            <mxPoint x="811" y="440" as="targetPoint" />
            <Array as="points">
              <mxPoint x="811" y="470" />
            </Array>
          </mxGeometry>
        </mxCell>
        <mxCell id="qRQIfawTwgO48iiJtZ4b-80" value="" style="resizable=0;html=1;align=right;verticalAlign=bottom;" connectable="0" vertex="1" parent="qRQIfawTwgO48iiJtZ4b-79">
          <mxGeometry x="1" relative="1" as="geometry" />
        </mxCell>
        <mxCell id="qRQIfawTwgO48iiJtZ4b-81" value="" style="endArrow=none;html=1;rounded=0;shadow=0;edgeStyle=orthogonalEdgeStyle;exitX=0.5;exitY=0;exitDx=0;exitDy=0;" edge="1" parent="1" source="qRQIfawTwgO48iiJtZ4b-53">
          <mxGeometry relative="1" as="geometry">
            <mxPoint x="839.58" y="470" as="sourcePoint" />
            <mxPoint x="839.58" y="440" as="targetPoint" />
            <Array as="points">
              <mxPoint x="840" y="510" />
              <mxPoint x="840" y="470" />
            </Array>
          </mxGeometry>
        </mxCell>
        <mxCell id="qRQIfawTwgO48iiJtZ4b-82" value="" style="resizable=0;html=1;align=right;verticalAlign=bottom;" connectable="0" vertex="1" parent="qRQIfawTwgO48iiJtZ4b-81">
          <mxGeometry x="1" relative="1" as="geometry" />
        </mxCell>
        <mxCell id="qRQIfawTwgO48iiJtZ4b-83" value="" style="endArrow=none;html=1;rounded=0;shadow=0;edgeStyle=orthogonalEdgeStyle;" edge="1" parent="1">
          <mxGeometry relative="1" as="geometry">
            <mxPoint x="874" y="510" as="sourcePoint" />
            <mxPoint x="873.5399999999998" y="440" as="targetPoint" />
            <Array as="points">
              <mxPoint x="874" y="510" />
              <mxPoint x="874" y="550" />
              <mxPoint x="874" y="550" />
            </Array>
          </mxGeometry>
        </mxCell>
        <mxCell id="qRQIfawTwgO48iiJtZ4b-84" value="" style="resizable=0;html=1;align=right;verticalAlign=bottom;" connectable="0" vertex="1" parent="qRQIfawTwgO48iiJtZ4b-83">
          <mxGeometry x="1" relative="1" as="geometry" />
        </mxCell>
        <mxCell id="qRQIfawTwgO48iiJtZ4b-85" value="&lt;font style=&quot;vertical-align: inherit&quot;&gt;&lt;font style=&quot;vertical-align: inherit&quot;&gt;nome&lt;/font&gt;&lt;/font&gt;" style="text;html=1;align=center;verticalAlign=middle;resizable=0;points=[];autosize=1;strokeColor=none;fillColor=none;" vertex="1" parent="1">
          <mxGeometry x="760" y="460" width="50" height="20" as="geometry" />
        </mxCell>
        <mxCell id="qRQIfawTwgO48iiJtZ4b-87" value="&lt;font style=&quot;vertical-align: inherit&quot;&gt;&lt;font style=&quot;vertical-align: inherit&quot;&gt;cor&amp;nbsp;&lt;br&gt;tarja&lt;br&gt;&lt;/font&gt;&lt;/font&gt;" style="text;html=1;align=center;verticalAlign=middle;resizable=0;points=[];autosize=1;strokeColor=none;fillColor=none;" vertex="1" parent="1">
          <mxGeometry x="797.5" y="505" width="40" height="30" as="geometry" />
        </mxCell>
        <mxCell id="qRQIfawTwgO48iiJtZ4b-88" value="&lt;font style=&quot;vertical-align: inherit&quot;&gt;&lt;font style=&quot;vertical-align: inherit&quot;&gt;validade&lt;br&gt;&lt;br&gt;&lt;/font&gt;&lt;/font&gt;" style="text;html=1;align=center;verticalAlign=middle;resizable=0;points=[];autosize=1;strokeColor=none;fillColor=none;" vertex="1" parent="1">
          <mxGeometry x="810" y="555" width="60" height="30" as="geometry" />
        </mxCell>
        <mxCell id="qRQIfawTwgO48iiJtZ4b-90" value="" style="line;strokeWidth=1;rotatable=0;dashed=0;labelPosition=right;align=left;verticalAlign=middle;spacingTop=0;spacingLeft=6;points=[];portConstraint=eastwest;" vertex="1" parent="1">
          <mxGeometry x="890" y="425" width="40" height="10" as="geometry" />
        </mxCell>
        <mxCell id="qRQIfawTwgO48iiJtZ4b-91" value="&lt;font style=&quot;vertical-align: inherit&quot;&gt;&lt;font style=&quot;vertical-align: inherit&quot;&gt;nome&amp;nbsp;&lt;br&gt;laboratorio&lt;br&gt;&lt;/font&gt;&lt;/font&gt;" style="text;html=1;align=center;verticalAlign=middle;resizable=0;points=[];autosize=1;strokeColor=none;fillColor=none;" vertex="1" parent="1">
          <mxGeometry x="950" y="420" width="70" height="30" as="geometry" />
        </mxCell>
        <mxCell id="qRQIfawTwgO48iiJtZ4b-92" value="" style="line;strokeWidth=1;rotatable=0;dashed=0;labelPosition=right;align=left;verticalAlign=middle;spacingTop=0;spacingLeft=6;points=[];portConstraint=eastwest;" vertex="1" parent="1">
          <mxGeometry x="380" y="265" width="60" height="10" as="geometry" />
        </mxCell>
        <mxCell id="qRQIfawTwgO48iiJtZ4b-93" value="&lt;font style=&quot;vertical-align: inherit&quot;&gt;&lt;font style=&quot;vertical-align: inherit&quot;&gt;ficha&lt;br&gt;cadastral&amp;nbsp;&lt;br&gt;&lt;/font&gt;&lt;/font&gt;" style="text;html=1;align=center;verticalAlign=middle;resizable=0;points=[];autosize=1;strokeColor=none;fillColor=none;" vertex="1" parent="1">
          <mxGeometry x="295" y="255" width="70" height="30" as="geometry" />
        </mxCell>
      </root>
    </mxGraphModel>
  </diagram>
</mxfile>
